<svg width="30" height="40" viewBox="0 0 30 40" fill="none" xmlns="http://www.w3.org/2000/svg">
<path d="M3.33333 23.3333H26.6667L24.1667 15.8333H5.83333L3.33333 23.3333ZM24.1667 31.6667C24.8297 31.6667 25.4656 31.4033 25.9344 30.9344C26.4033 30.4656 26.6667 29.8297 26.6667 29.1667C26.6667 28.5036 26.4033 27.8677 25.9344 27.3989C25.4656 26.9301 24.8297 26.6667 24.1667 26.6667C23.5036 26.6667 22.8677 26.9301 22.3989 27.3989C21.9301 27.8677 21.6667 28.5036 21.6667 29.1667C21.6667 29.8297 21.9301 30.4656 22.3989 30.9344C22.8677 31.4033 23.5036 31.6667 24.1667 31.6667ZM5.83333 31.6667C6.49637 31.6667 7.13226 31.4033 7.6011 30.9344C8.06994 30.4656 8.33333 29.8297 8.33333 29.1667C8.33333 28.5036 8.06994 27.8677 7.6011 27.3989C7.13226 26.9301 6.49637 26.6667 5.83333 26.6667C5.17029 26.6667 4.53441 26.9301 4.06557 27.3989C3.59672 27.8677 3.33333 28.5036 3.33333 29.1667C3.33333 29.8297 3.59672 30.4656 4.06557 30.9344C4.53441 31.4033 5.17029 31.6667 5.83333 31.6667ZM26.5333 15L30 25V38.3333C30 38.7754 29.8244 39.1993 29.5118 39.5118C29.1993 39.8244 28.7754 40 28.3333 40H26.6667C26.2246 40 25.8007 39.8244 25.4882 39.5118C25.1756 39.1993 25 38.7754 25 38.3333V36.6667H5V38.3333C5 38.7754 4.8244 39.1993 4.51184 39.5118C4.19928 39.8244 3.77536 40 3.33333 40H1.66667C1.22464 40 0.800716 39.8244 0.488155 39.5118C0.175595 39.1993 0 38.7754 0 38.3333V25L3.46667 15C3.8 14.0333 4.75 13.3333 5.83333 13.3333H24.1667C25.25 13.3333 26.2 14.0333 26.5333 15ZM15 0C18.5333 0 21.9167 1.43333 24.4167 3.91667L22.05 6.28333C20.1833 4.41667 17.6333 3.33333 15 3.33333C12.3667 3.33333 9.81667 4.41667 7.95 6.28333L5.6 3.91667C8.08333 1.43333 11.4667 0 15 0ZM15 6.66667C16.7667 6.66667 18.45 7.4 19.7 8.63333L17.3333 11C16.7167 10.3833 15.8833 10 15 10C14.1667 10 13.2833 10.3833 12.6667 11L10.3 8.63333C11.55 7.4 13.2333 6.66667 15 6.66667Z" fill="#14142B"/>
</svg>
