<?xml version="1.0" encoding="utf-8"?>
<!-- Generator: Adobe Illustrator 25.4.1, SVG Export Plug-In . SVG Version: 6.00 Build 0)  -->
<svg version="1.1" id="Camada_1" xmlns="http://www.w3.org/2000/svg" xmlns:xlink="http://www.w3.org/1999/xlink" x="0px" y="0px"
	 viewBox="0 0 595.3 425.2" style="enable-background:new 0 0 595.3 425.2;" xml:space="preserve">
<style type="text/css">
	.st0{fill:#00F781;}
</style>
<g id="BG">
	<g>
		<g>
			<g>
				<path class="st0" d="M333.3,249.3h30.5v-30.6C356.9,231.6,346.2,242.3,333.3,249.3z"/>
				<path class="st0" d="M397.7,116.4c-20.1,0-38.1,9-50.3,23.2c-12.2-13.9-30-22.7-49.9-22.7c-20,0-37.9,8.9-50.1,23
					c-12.2-14-30.1-22.9-50.1-22.9c-36.6,0-66.3,29.8-66.3,66.3s29.8,66.3,66.3,66.3s66.3-29.8,66.3-66.3l0,0l0,0
					c0-18.7,15.2-33.9,33.9-33.9c18.7,0,33.9,15.2,33.9,33.9s-15.2,33.9-33.9,33.9c-11.4,0-21.4-5.6-27.6-14.2
					c-3.1,11.3-8.7,21.5-16.2,30.1c11.7,10.3,27,16.6,43.8,16.6c36.6,0,66.3-29.8,66.3-66.3v0v-0.4c0-18.7,15.2-33.9,33.9-33.9
					s33.9,15.2,33.9,33.9v66.7H464v-66.7C464,146.2,434.3,116.4,397.7,116.4z M197.3,217.1c-18.7,0-33.9-15.2-33.9-33.9
					s15.2-33.9,33.9-33.9s33.9,15.2,33.9,33.9C231.2,201.9,216,217.1,197.3,217.1z"/>
			</g>
			<g>
				<path class="st0" d="M183.5,302.4c-2.3,0-4.1-0.5-5.4-1.5c-1.3-1-2-2.3-2-4h3.4c0,0.6,0.4,1.2,1,1.8c0.6,0.5,1.6,0.8,3,0.8
					c1.2,0,2.1-0.2,2.8-0.7c0.7-0.5,1-1,1-1.8c0-0.6-0.2-1.1-0.8-1.5s-1.3-0.6-2.5-0.8l-1.7-0.2c-1.8-0.2-3.2-0.7-4.2-1.6
					s-1.6-2-1.6-3.4c0-1.1,0.3-2.1,0.9-2.9s1.4-1.4,2.4-1.8c1-0.4,2.2-0.6,3.5-0.6c2,0,3.7,0.5,4.9,1.4s1.9,2.2,1.9,4h-3.4
					c0-0.7-0.4-1.2-0.9-1.7c-0.6-0.5-1.4-0.7-2.6-0.7c-1.1,0-1.9,0.2-2.4,0.6c-0.6,0.4-0.8,1-0.8,1.6c0,0.6,0.2,1.1,0.6,1.4
					c0.4,0.3,1.1,0.6,2.1,0.7l1.7,0.2c1.9,0.2,3.5,0.8,4.6,1.6s1.7,2.1,1.7,3.6c0,1.1-0.3,2.1-0.9,2.9c-0.6,0.8-1.5,1.5-2.6,1.9
					C186.2,302.1,184.9,302.4,183.5,302.4z"/>
				<path class="st0" d="M221.4,302.4c-1.5,0-2.8-0.2-3.9-0.8s-2-1.2-2.7-2c-0.7-0.8-1.2-1.8-1.6-2.8c-0.4-1-0.5-2.1-0.5-3.2V293
					c0-1.1,0.2-2.2,0.5-3.3c0.4-1,0.9-2,1.6-2.8s1.6-1.5,2.7-2s2.3-0.8,3.8-0.8c1.9,0,3.4,0.4,4.6,1.2s2.2,1.9,2.8,3.1
					c0.6,1.3,0.9,2.7,0.9,4.2v1.5h-15.2v-2.5h12.7l-1,1.3c0-1.1-0.2-2.1-0.5-3s-0.9-1.5-1.6-1.9c-0.7-0.5-1.6-0.7-2.6-0.7
					c-1.1,0-2,0.3-2.8,0.8c-0.7,0.5-1.3,1.2-1.7,2.1s-0.5,1.9-0.5,3.2c0,1.1,0.2,2.2,0.5,3.1c0.4,0.9,0.9,1.6,1.7,2.1
					c0.8,0.5,1.7,0.8,2.9,0.8c1.2,0,2.2-0.3,2.9-0.8s1.2-1.1,1.4-1.8h3.5c-0.2,1.2-0.7,2.2-1.4,3.1c-0.7,0.9-1.6,1.5-2.7,2
					S222.8,302.4,221.4,302.4z"/>
				<path class="st0" d="M259.3,308.6c-0.8,0-1.6,0-2.5-0.1c-0.8-0.1-1.6-0.1-2.3-0.2v-3.2c0.8,0.1,1.6,0.2,2.4,0.3
					c0.9,0.1,1.7,0.1,2.4,0.1c1.5,0,2.7-0.2,3.6-0.6c0.9-0.4,1.6-1,2-1.8s0.6-1.8,0.6-3.1v-3.3l1-2.3c-0.1,1.7-0.4,3-1,4.2
					s-1.5,2-2.5,2.5c-1,0.6-2.2,0.9-3.5,0.9c-1.2,0-2.3-0.2-3.2-0.7c-1-0.5-1.8-1.1-2.5-1.9s-1.2-1.7-1.6-2.8
					c-0.4-1-0.6-2.2-0.6-3.4v-0.6c0-1.2,0.2-2.3,0.6-3.4s0.9-2,1.7-2.7s1.6-1.4,2.6-1.8c1-0.4,2.1-0.6,3.3-0.6
					c1.4,0,2.6,0.3,3.7,0.9c1.1,0.6,1.9,1.5,2.5,2.7c0.6,1.2,1,2.6,1,4.3l-0.8,0.1v-7.4h3v15.1c0,2.1-0.3,3.8-1,5
					c-0.7,1.3-1.7,2.2-3.2,2.8C263.5,308.3,261.6,308.6,259.3,308.6z M260.4,298.6c0.9,0,1.8-0.2,2.6-0.6s1.4-1,1.9-1.8
					s0.7-1.7,0.7-2.8v-1.3c0-1.1-0.2-2-0.7-2.7s-1.1-1.3-1.9-1.7c-0.8-0.4-1.6-0.6-2.5-0.6c-1,0-1.9,0.2-2.7,0.7
					c-0.8,0.5-1.4,1.1-1.8,2c-0.4,0.9-0.6,1.9-0.6,3c0,1.2,0.2,2.2,0.7,3c0.5,0.9,1.1,1.5,1.8,2
					C258.5,298.4,259.4,298.6,260.4,298.6z"/>
				<path class="st0" d="M299.4,302.4c-2,0-3.6-0.6-4.6-2s-1.6-3.2-1.6-5.8v-10h3.7v10.5c0,1.2,0.3,2.1,1,2.8s1.5,1,2.7,1
					c1.1,0,2.1-0.4,2.8-1.1s1.1-1.7,1.1-3v-10.2h3.7v17.2h-3v-7.3h0.4c0,1.7-0.2,3.2-0.7,4.3s-1.1,2-2,2.6s-2,0.9-3.3,0.9H299.4z"/>
				<path class="st0" d="M332.8,301.8v-17.2h3v7.2h-0.1c0-2.5,0.5-4.3,1.6-5.5c1.1-1.2,2.7-1.8,4.8-1.8h0.6v3.3h-1.1
					c-1.6,0-2.9,0.4-3.7,1.3c-0.9,0.9-1.3,2.1-1.3,3.7v9.1L332.8,301.8L332.8,301.8z"/>
				<path class="st0" d="M373.1,302.4c-1.5,0-2.8-0.2-4-0.8s-2.1-1.2-2.9-2s-1.4-1.8-1.8-2.8c-0.4-1-0.6-2.1-0.6-3.3V293
					c0-1.1,0.2-2.2,0.6-3.3s1-2,1.8-2.9c0.8-0.8,1.8-1.5,2.9-2c1.1-0.5,2.5-0.7,3.9-0.7s2.8,0.2,3.9,0.7s2.1,1.1,2.9,2
					c0.8,0.8,1.4,1.8,1.8,2.9c0.4,1.1,0.6,2.2,0.6,3.3v0.6c0,1.1-0.2,2.2-0.6,3.3c-0.4,1-1,2-1.8,2.8s-1.8,1.5-2.9,2
					C375.9,302.2,374.6,302.4,373.1,302.4z M373.1,299.2c1.2,0,2.2-0.3,3-0.8s1.5-1.2,1.9-2.1c0.4-0.9,0.6-1.9,0.6-3
					c0-1.1-0.2-2.1-0.7-3c-0.5-0.9-1.1-1.6-1.9-2.1c-0.8-0.5-1.8-0.8-3-0.8c-1.1,0-2.1,0.3-3,0.8s-1.5,1.2-1.9,2.1
					c-0.5,0.9-0.7,1.9-0.7,3c0,1.1,0.2,2.1,0.6,3c0.4,0.9,1.1,1.6,1.9,2.1C370.9,298.9,371.9,299.2,373.1,299.2z"/>
				<path class="st0" d="M411.7,302.4c-2.3,0-4.1-0.5-5.4-1.5c-1.3-1-2-2.3-2-4h3.4c0,0.6,0.4,1.2,1,1.8s1.6,0.8,3,0.8
					c1.2,0,2.1-0.2,2.8-0.7c0.7-0.5,1-1,1-1.8c0-0.6-0.2-1.1-0.8-1.5s-1.3-0.6-2.5-0.8l-1.7-0.2c-1.8-0.2-3.2-0.7-4.2-1.6
					s-1.5-2-1.5-3.4c0-1.1,0.3-2.1,0.9-2.9c0.6-0.8,1.4-1.4,2.4-1.8s2.2-0.6,3.5-0.6c2,0,3.7,0.5,4.9,1.4s1.9,2.2,1.9,4H415
					c0-0.7-0.4-1.2-0.9-1.7s-1.4-0.7-2.5-0.7c-1.1,0-1.9,0.2-2.4,0.6c-0.6,0.4-0.8,1-0.8,1.6c0,0.6,0.2,1.1,0.6,1.4
					c0.4,0.3,1.1,0.6,2.1,0.7l1.7,0.2c1.9,0.2,3.5,0.8,4.6,1.6c1.1,0.9,1.7,2.1,1.7,3.6c0,1.1-0.3,2.1-0.9,2.9
					c-0.6,0.8-1.5,1.5-2.6,1.9C414.4,302.1,413.1,302.4,411.7,302.4z"/>
			</g>
		</g>
	</g>
</g>
<g id="Perla_Souza">
</g>
</svg>
