<svg width="220" height="127" viewBox="0 0 220 127" fill="none" xmlns="http://www.w3.org/2000/svg">
<path d="M133.53 87.9988H153.554V67.8433C148.983 76.3582 142.008 83.386 133.53 87.9988Z" fill="#216CFF"/>
<path d="M175.809 0.546387C162.616 0.546387 150.782 6.46209 142.79 15.7798C134.798 6.62001 123.069 0.816177 110 0.816177C96.8722 0.816177 85.0841 6.67923 77.0919 15.918C69.0996 6.67923 57.3181 0.816177 44.1838 0.816177C20.1677 0.816177 0.630371 20.3926 0.630371 44.4568C0.630371 68.521 20.1677 88.0974 44.1838 88.0974C68.1999 88.0974 87.7372 68.521 87.7372 44.4568C87.7372 32.1582 97.7193 22.1561 109.993 22.1561C122.267 22.1561 132.249 32.1582 132.249 44.4568C132.249 56.7554 122.267 66.7575 109.993 66.7575C102.533 66.7575 95.9265 63.0593 91.8877 57.4003C89.8781 64.836 86.1808 71.5743 81.2357 77.1873C88.9128 83.9716 98.9802 88.0974 110 88.0974C134.016 88.0974 153.553 68.521 153.553 44.4568V44.4502V44.187C153.553 31.8884 163.535 21.8863 175.809 21.8863C188.083 21.8863 198.066 31.8884 198.066 44.187V88.0974H219.363V44.187C219.369 20.1228 199.826 0.546387 175.809 0.546387ZM44.1838 66.7575C31.9098 66.7575 21.9277 56.7554 21.9277 44.4568C21.9277 32.1582 31.9098 22.1561 44.1838 22.1561C56.4578 22.1561 66.4399 32.1582 66.4399 44.4568C66.4465 56.7554 56.4578 66.7575 44.1838 66.7575Z" fill="#216CFF"/>
<path d="M35.1082 122.888C33.5846 122.888 32.4025 122.565 31.5619 121.92C30.7148 121.275 30.2748 120.387 30.2354 119.255H32.4945C32.5207 119.676 32.7374 120.058 33.1446 120.407C33.5518 120.756 34.2151 120.933 35.1345 120.933C35.916 120.933 36.5267 120.782 36.9798 120.473C37.4264 120.163 37.6497 119.782 37.6497 119.321C37.6497 118.9 37.4855 118.571 37.1571 118.327C36.8288 118.084 36.2771 117.919 35.4957 117.834L34.3858 117.729C33.23 117.604 32.3106 117.261 31.6342 116.702C30.9577 116.143 30.6162 115.386 30.6162 114.438C30.6162 113.682 30.8067 113.05 31.181 112.53C31.5554 112.01 32.0807 111.615 32.744 111.333C33.4073 111.05 34.1691 110.911 35.036 110.911C36.3757 110.911 37.4592 111.207 38.2801 111.8C39.101 112.392 39.5279 113.267 39.5542 114.412H37.3148C37.2885 113.978 37.0849 113.616 36.7106 113.32C36.3362 113.024 35.778 112.879 35.036 112.879C34.3398 112.879 33.8013 113.017 33.4336 113.3C33.0658 113.583 32.8819 113.938 32.8819 114.373C32.8819 114.767 33.0198 115.07 33.3022 115.294C33.578 115.518 34.0377 115.662 34.6616 115.735L35.7715 115.84C37.0389 115.978 38.0503 116.334 38.7989 116.899C39.5476 117.465 39.9219 118.255 39.9219 119.262C39.9219 119.992 39.7183 120.624 39.3177 121.17C38.9106 121.716 38.3524 122.137 37.63 122.44C36.8879 122.736 36.0539 122.888 35.1082 122.888Z" fill="#216CFF"/>
<path d="M60.0569 122.934C59.0784 122.934 58.2312 122.769 57.5023 122.433C56.7733 122.098 56.1823 121.657 55.7226 121.104C55.2629 120.551 54.9148 119.933 54.685 119.235C54.4551 118.544 54.3369 117.834 54.3369 117.103V116.702C54.3369 115.958 54.4486 115.241 54.685 114.55C54.9148 113.859 55.2629 113.234 55.7226 112.681C56.1823 112.129 56.7668 111.688 57.4694 111.359C58.1721 111.03 58.993 110.865 59.9321 110.865C61.1471 110.865 62.1584 111.128 62.9662 111.661C63.7739 112.194 64.3847 112.879 64.7853 113.728C65.1924 114.577 65.396 115.485 65.396 116.465V117.452H55.3877V115.794H63.7411L63.0712 116.636C63.0712 115.879 62.953 115.228 62.7166 114.675C62.4802 114.122 62.1321 113.695 61.6724 113.399C61.2127 113.096 60.6348 112.945 59.9321 112.945C59.2097 112.945 58.599 113.116 58.113 113.451C57.6271 113.787 57.2593 114.248 57.0229 114.833C56.7865 115.419 56.6682 116.11 56.6682 116.913C56.6682 117.669 56.7865 118.34 57.0229 118.939C57.2593 119.532 57.6271 120.005 58.1327 120.347C58.6318 120.69 59.2754 120.861 60.0569 120.861C60.8384 120.861 61.482 120.69 61.9811 120.347C62.4802 120.005 62.7888 119.604 62.9005 119.143H65.1793C65.0283 119.913 64.713 120.584 64.2468 121.157C63.7805 121.729 63.1894 122.17 62.4802 122.479C61.7709 122.789 60.9697 122.934 60.0569 122.934Z" fill="#216CFF"/>
<path d="M84.9069 126.98C84.3749 126.98 83.8364 126.961 83.2979 126.915C82.7529 126.875 82.2406 126.816 81.7678 126.75V124.671C82.2734 124.743 82.8054 124.802 83.3702 124.848C83.935 124.894 84.4603 124.921 84.9528 124.921C85.9314 124.921 86.7129 124.796 87.3105 124.546C87.9015 124.296 88.3349 123.907 88.6108 123.381C88.8866 122.855 89.0179 122.177 89.0179 121.335V119.15L89.6681 117.643C89.6287 118.735 89.3988 119.65 88.9851 120.394C88.5714 121.137 88.0263 121.696 87.3499 122.072C86.6735 122.447 85.9051 122.637 85.0382 122.637C84.2567 122.637 83.5475 122.493 82.9039 122.197C82.2603 121.9 81.7087 121.492 81.249 120.959C80.7893 120.426 80.4346 119.815 80.1785 119.124C79.929 118.433 79.8042 117.696 79.8042 116.913V116.511C79.8042 115.715 79.9355 114.971 80.1917 114.287C80.4478 113.603 80.8155 113.004 81.2884 112.491C81.7612 111.977 82.3326 111.583 82.9958 111.306C83.6591 111.03 84.3881 110.885 85.1827 110.885C86.1021 110.885 86.9164 111.082 87.6191 111.484C88.3218 111.885 88.88 112.464 89.2806 113.234C89.6878 114.004 89.9045 114.938 89.9308 116.044L89.3857 116.11V111.24H91.3296V121.203C91.3296 122.572 91.1129 123.684 90.6729 124.526C90.2329 125.375 89.5433 125.993 88.5976 126.382C87.6651 126.783 86.4305 126.98 84.9069 126.98ZM85.6424 120.453C86.2597 120.453 86.8179 120.315 87.3302 120.045C87.8424 119.775 88.243 119.38 88.5451 118.867C88.8472 118.354 88.9982 117.742 88.9982 117.031V116.169C88.9982 115.472 88.8406 114.879 88.5254 114.399C88.2102 113.919 87.803 113.55 87.2973 113.3C86.7982 113.05 86.2532 112.925 85.6621 112.925C84.9923 112.925 84.4012 113.083 83.8824 113.399C83.3636 113.715 82.963 114.155 82.6806 114.721C82.3917 115.287 82.2537 115.945 82.2537 116.702C82.2537 117.472 82.3982 118.137 82.6937 118.702C82.9893 119.268 83.3899 119.703 83.8955 120.005C84.4012 120.308 84.9857 120.453 85.6424 120.453Z" fill="#216CFF"/>
<path d="M111.248 122.887C109.921 122.887 108.903 122.46 108.194 121.598C107.485 120.736 107.124 119.466 107.124 117.788V111.24H109.573V118.123C109.573 118.906 109.79 119.525 110.223 119.979C110.657 120.433 111.241 120.663 111.983 120.663C112.738 120.663 113.356 120.42 113.835 119.939C114.315 119.459 114.558 118.794 114.558 117.959V111.247H117.007V122.552H115.057V117.728H115.306C115.306 118.86 115.155 119.808 114.853 120.571C114.551 121.334 114.111 121.914 113.533 122.302C112.955 122.69 112.226 122.887 111.346 122.887H111.248Z" fill="#216CFF"/>
<path d="M133.208 122.552V111.247H135.152V115.965H135.067C135.067 114.346 135.422 113.129 136.137 112.326C136.847 111.523 137.904 111.122 139.296 111.122H139.697V113.28H138.942C137.878 113.28 137.07 113.563 136.505 114.129C135.94 114.695 135.658 115.504 135.658 116.551V122.552H133.208Z" fill="#216CFF"/>
<path d="M159.628 122.934C158.636 122.934 157.763 122.769 157.008 122.44C156.252 122.111 155.622 121.677 155.103 121.131C154.584 120.584 154.197 119.966 153.934 119.275C153.672 118.584 153.534 117.867 153.534 117.123V116.702C153.534 115.958 153.672 115.241 153.941 114.544C154.21 113.846 154.611 113.221 155.136 112.668C155.661 112.116 156.298 111.681 157.054 111.359C157.809 111.036 158.663 110.878 159.628 110.878C160.593 110.878 161.447 111.036 162.189 111.359C162.931 111.681 163.575 112.116 164.107 112.668C164.639 113.221 165.039 113.846 165.309 114.544C165.578 115.241 165.716 115.965 165.716 116.702V117.123C165.716 117.867 165.584 118.584 165.315 119.275C165.053 119.966 164.658 120.584 164.146 121.131C163.634 121.677 162.997 122.111 162.242 122.44C161.487 122.769 160.62 122.934 159.628 122.934ZM159.628 120.788C160.396 120.788 161.053 120.617 161.598 120.275C162.143 119.933 162.557 119.466 162.846 118.88C163.135 118.294 163.273 117.636 163.273 116.906C163.273 116.162 163.128 115.498 162.833 114.912C162.537 114.327 162.124 113.859 161.578 113.517C161.033 113.175 160.383 113.004 159.635 113.004C158.879 113.004 158.229 113.175 157.684 113.517C157.139 113.859 156.719 114.327 156.43 114.912C156.134 115.498 155.99 116.162 155.99 116.906C155.99 117.636 156.134 118.288 156.417 118.88C156.699 119.466 157.119 119.933 157.664 120.275C158.203 120.617 158.86 120.788 159.628 120.788Z" fill="#216CFF"/>
<path d="M184.977 122.888C183.454 122.888 182.272 122.565 181.431 121.92C180.584 121.275 180.144 120.387 180.104 119.255H182.364C182.39 119.676 182.607 120.058 183.014 120.407C183.421 120.756 184.084 120.933 185.004 120.933C185.785 120.933 186.396 120.782 186.849 120.473C187.296 120.163 187.519 119.782 187.519 119.321C187.519 118.9 187.355 118.571 187.026 118.327C186.698 118.084 186.146 117.919 185.365 117.834L184.255 117.729C183.099 117.604 182.18 117.261 181.503 116.702C180.827 116.143 180.485 115.386 180.485 114.438C180.485 113.682 180.676 113.05 181.05 112.53C181.424 112.01 181.95 111.615 182.613 111.333C183.276 111.05 184.038 110.911 184.905 110.911C186.245 110.911 187.328 111.207 188.149 111.8C188.97 112.392 189.397 113.267 189.423 114.412H187.184C187.158 113.978 186.954 113.616 186.58 113.32C186.205 113.024 185.647 112.879 184.905 112.879C184.209 112.879 183.67 113.017 183.303 113.3C182.935 113.583 182.751 113.938 182.751 114.373C182.751 114.767 182.889 115.07 183.171 115.294C183.447 115.518 183.907 115.662 184.531 115.735L185.641 115.84C186.908 115.978 187.919 116.334 188.668 116.899C189.417 117.465 189.791 118.255 189.791 119.262C189.791 119.992 189.587 120.624 189.187 121.17C188.78 121.716 188.222 122.137 187.499 122.44C186.764 122.736 185.93 122.888 184.977 122.888Z" fill="#216CFF"/>
</svg>
