<svg width="335" height="193" viewBox="0 0 335 193" fill="none" xmlns="http://www.w3.org/2000/svg">
<path d="M203.33 133.73H233.82V103.1C226.86 116.04 216.24 126.72 203.33 133.73Z" fill="#14142B"/>
<path d="M267.711 0.830322C247.621 0.830322 229.601 9.82032 217.431 23.9803C205.261 10.0603 187.401 1.24032 167.501 1.24032C147.511 1.24032 129.561 10.1503 117.391 24.1903C105.221 10.1503 87.2809 1.24032 67.2809 1.24032C30.7109 1.24032 0.960938 30.9903 0.960938 67.5603C0.960938 104.13 30.7109 133.88 67.2809 133.88C103.851 133.88 133.601 104.13 133.601 67.5603C133.601 48.8703 148.801 33.6703 167.491 33.6703C186.181 33.6703 201.381 48.8703 201.381 67.5603C201.381 86.2503 186.181 101.45 167.491 101.45C156.131 101.45 146.071 95.8303 139.921 87.2303C136.861 98.5303 131.231 108.77 123.701 117.3C135.391 127.61 150.721 133.88 167.501 133.88C204.071 133.88 233.821 104.13 233.821 67.5603V67.5503V67.1503C233.821 48.4603 249.021 33.2603 267.711 33.2603C286.401 33.2603 301.601 48.4603 301.601 67.1503V133.88H334.031V67.1503C334.041 30.5803 304.281 0.830322 267.711 0.830322ZM67.2809 101.45C48.5909 101.45 33.3909 86.2503 33.3909 67.5603C33.3909 48.8703 48.5909 33.6703 67.2809 33.6703C85.9709 33.6703 101.171 48.8703 101.171 67.5603C101.181 86.2503 85.9709 101.45 67.2809 101.45Z" fill="#14142B"/>
<path d="M53.461 186.75C51.141 186.75 49.341 186.26 48.061 185.28C46.771 184.3 46.101 182.95 46.041 181.23H49.481C49.521 181.87 49.851 182.45 50.471 182.98C51.091 183.51 52.101 183.78 53.501 183.78C54.691 183.78 55.621 183.55 56.311 183.08C56.991 182.61 57.331 182.03 57.331 181.33C57.331 180.69 57.081 180.19 56.581 179.82C56.081 179.45 55.241 179.2 54.051 179.07L52.361 178.91C50.601 178.72 49.201 178.2 48.171 177.35C47.141 176.5 46.621 175.35 46.621 173.91C46.621 172.76 46.911 171.8 47.481 171.01C48.051 170.22 48.851 169.62 49.861 169.19C50.871 168.76 52.031 168.55 53.351 168.55C55.391 168.55 57.041 169 58.291 169.9C59.541 170.8 60.191 172.13 60.231 173.87H56.821C56.781 173.21 56.471 172.66 55.901 172.21C55.331 171.76 54.481 171.54 53.351 171.54C52.291 171.54 51.471 171.75 50.911 172.18C50.351 172.61 50.071 173.15 50.071 173.81C50.071 174.41 50.281 174.87 50.711 175.21C51.131 175.55 51.831 175.77 52.781 175.88L54.471 176.04C56.401 176.25 57.941 176.79 59.081 177.65C60.221 178.51 60.791 179.71 60.791 181.24C60.791 182.35 60.481 183.31 59.871 184.14C59.251 184.97 58.401 185.61 57.301 186.07C56.171 186.52 54.901 186.75 53.461 186.75Z" fill="#14142B"/>
<path d="M91.4502 186.82C89.9602 186.82 88.6702 186.57 87.5602 186.06C86.4502 185.55 85.5502 184.88 84.8502 184.04C84.1502 183.2 83.6202 182.26 83.2702 181.2C82.9202 180.15 82.7402 179.07 82.7402 177.96V177.35C82.7402 176.22 82.9102 175.13 83.2702 174.08C83.6202 173.03 84.1502 172.08 84.8502 171.24C85.5502 170.4 86.4402 169.73 87.5102 169.23C88.5802 168.73 89.8302 168.48 91.2602 168.48C93.1102 168.48 94.6502 168.88 95.8802 169.69C97.1102 170.5 98.0402 171.54 98.6502 172.83C99.2702 174.12 99.5802 175.5 99.5802 176.99V178.49H84.3402V175.97H97.0602L96.0402 177.25C96.0402 176.1 95.8602 175.11 95.5002 174.27C95.1402 173.43 94.6102 172.78 93.9102 172.33C93.2102 171.87 92.3302 171.64 91.2602 171.64C90.1602 171.64 89.2302 171.9 88.4902 172.41C87.7502 172.92 87.1902 173.62 86.8302 174.51C86.4702 175.4 86.2902 176.45 86.2902 177.67C86.2902 178.82 86.4702 179.84 86.8302 180.75C87.1902 181.65 87.7502 182.37 88.5202 182.89C89.2802 183.41 90.2602 183.67 91.4502 183.67C92.6402 183.67 93.6202 183.41 94.3802 182.89C95.1402 182.37 95.6102 181.76 95.7802 181.06H99.2502C99.0202 182.23 98.5402 183.25 97.8302 184.12C97.1202 184.99 96.2202 185.66 95.1402 186.13C94.0602 186.6 92.8402 186.82 91.4502 186.82Z" fill="#14142B"/>
<path d="M129.291 192.97C128.481 192.97 127.661 192.94 126.841 192.87C126.011 192.81 125.231 192.72 124.511 192.62V189.46C125.281 189.57 126.091 189.66 126.951 189.73C127.811 189.8 128.611 189.84 129.361 189.84C130.851 189.84 132.041 189.65 132.951 189.27C133.851 188.89 134.511 188.3 134.931 187.5C135.351 186.7 135.551 185.67 135.551 184.39V181.07L136.541 178.78C136.481 180.44 136.131 181.83 135.501 182.96C134.871 184.09 134.041 184.94 133.011 185.51C131.981 186.08 130.811 186.37 129.491 186.37C128.301 186.37 127.221 186.15 126.241 185.7C125.261 185.25 124.421 184.63 123.721 183.82C123.021 183.01 122.481 182.08 122.091 181.03C121.711 179.98 121.521 178.86 121.521 177.67V177.06C121.521 175.85 121.721 174.72 122.111 173.68C122.501 172.64 123.061 171.73 123.781 170.95C124.501 170.17 125.371 169.57 126.381 169.15C127.391 168.73 128.501 168.51 129.711 168.51C131.111 168.51 132.351 168.81 133.421 169.42C134.491 170.03 135.341 170.91 135.951 172.08C136.571 173.25 136.901 174.67 136.941 176.35L136.111 176.45V169.05H139.071V184.19C139.071 186.27 138.741 187.96 138.071 189.24C137.401 190.53 136.351 191.47 134.911 192.06C133.491 192.67 131.611 192.97 129.291 192.97ZM130.411 183.05C131.351 183.05 132.201 182.84 132.981 182.43C133.761 182.02 134.371 181.42 134.831 180.64C135.291 179.86 135.521 178.93 135.521 177.85V176.54C135.521 175.48 135.281 174.58 134.801 173.85C134.321 173.12 133.701 172.56 132.931 172.18C132.171 171.8 131.341 171.61 130.441 171.61C129.421 171.61 128.521 171.85 127.731 172.33C126.941 172.81 126.331 173.48 125.901 174.34C125.461 175.2 125.251 176.2 125.251 177.35C125.251 178.52 125.471 179.53 125.921 180.39C126.371 181.25 126.981 181.91 127.751 182.37C128.521 182.83 129.411 183.05 130.411 183.05Z" fill="#14142B"/>
<path d="M169.401 186.75C167.381 186.75 165.831 186.1 164.751 184.79C163.671 183.48 163.121 181.55 163.121 179V169.05H166.851V179.51C166.851 180.7 167.181 181.64 167.841 182.33C168.501 183.02 169.391 183.37 170.521 183.37C171.671 183.37 172.611 183 173.341 182.27C174.071 181.54 174.441 180.53 174.441 179.26V169.06H178.171V186.24H175.201V178.91H175.581C175.581 180.63 175.351 182.07 174.891 183.23C174.431 184.39 173.761 185.27 172.881 185.86C172.001 186.45 170.891 186.75 169.551 186.75H169.401Z" fill="#14142B"/>
<path d="M202.842 186.24V169.06H205.802V176.23H205.672C205.672 173.77 206.212 171.92 207.302 170.7C208.382 169.48 209.992 168.87 212.112 168.87H212.722V172.15H211.572C209.952 172.15 208.722 172.58 207.862 173.44C207.002 174.3 206.572 175.53 206.572 177.12V186.24H202.842V186.24Z" fill="#14142B"/>
<path d="M243.071 186.82C241.561 186.82 240.231 186.57 239.081 186.07C237.931 185.57 236.971 184.91 236.181 184.08C235.391 183.25 234.801 182.31 234.401 181.26C234.001 180.21 233.791 179.12 233.791 177.99V177.35C233.791 176.22 234.001 175.13 234.411 174.07C234.821 173.01 235.431 172.06 236.231 171.22C237.031 170.38 238.001 169.72 239.151 169.23C240.301 168.74 241.601 168.5 243.071 168.5C244.541 168.5 245.841 168.74 246.971 169.23C248.101 169.72 249.081 170.38 249.891 171.22C250.701 172.06 251.311 173.01 251.721 174.07C252.131 175.13 252.341 176.23 252.341 177.35V177.99C252.341 179.12 252.141 180.21 251.731 181.26C251.331 182.31 250.731 183.25 249.951 184.08C249.171 184.91 248.201 185.57 247.051 186.07C245.901 186.57 244.581 186.82 243.071 186.82ZM243.071 183.56C244.241 183.56 245.241 183.3 246.071 182.78C246.901 182.26 247.531 181.55 247.971 180.66C248.411 179.77 248.621 178.77 248.621 177.66C248.621 176.53 248.401 175.52 247.951 174.63C247.501 173.74 246.871 173.03 246.041 172.51C245.211 171.99 244.221 171.73 243.081 171.73C241.931 171.73 240.941 171.99 240.111 172.51C239.281 173.03 238.641 173.74 238.201 174.63C237.751 175.52 237.531 176.53 237.531 177.66C237.531 178.77 237.751 179.76 238.181 180.66C238.611 181.55 239.251 182.26 240.081 182.78C240.901 183.3 241.901 183.56 243.071 183.56Z" fill="#14142B"/>
<path d="M281.672 186.75C279.352 186.75 277.552 186.26 276.272 185.28C274.982 184.3 274.312 182.95 274.252 181.23H277.692C277.732 181.87 278.062 182.45 278.682 182.98C279.302 183.51 280.312 183.78 281.712 183.78C282.902 183.78 283.832 183.55 284.522 183.08C285.202 182.61 285.542 182.03 285.542 181.33C285.542 180.69 285.292 180.19 284.792 179.82C284.292 179.45 283.452 179.2 282.262 179.07L280.572 178.91C278.812 178.72 277.412 178.2 276.382 177.35C275.352 176.5 274.832 175.35 274.832 173.91C274.832 172.76 275.122 171.8 275.692 171.01C276.262 170.22 277.062 169.62 278.072 169.19C279.082 168.76 280.242 168.55 281.562 168.55C283.602 168.55 285.252 169 286.502 169.9C287.752 170.8 288.402 172.13 288.442 173.87H285.032C284.992 173.21 284.682 172.66 284.112 172.21C283.542 171.76 282.692 171.54 281.562 171.54C280.502 171.54 279.682 171.75 279.122 172.18C278.562 172.61 278.282 173.15 278.282 173.81C278.282 174.41 278.492 174.87 278.922 175.21C279.342 175.55 280.042 175.77 280.992 175.88L282.682 176.04C284.612 176.25 286.152 176.79 287.292 177.65C288.432 178.51 289.002 179.71 289.002 181.24C289.002 182.35 288.692 183.31 288.082 184.14C287.462 184.97 286.612 185.61 285.512 186.07C284.392 186.52 283.122 186.75 281.672 186.75Z" fill="#14142B"/>
</svg>
