<svg width="191" height="88" viewBox="0 0 191 88" fill="none" xmlns="http://www.w3.org/2000/svg">
<path d="M106.951 58.7482H116.734V48.9512C114.501 53.09 111.093 56.506 106.951 58.7482Z" fill="white"/>
<path d="M127.608 16.2402C121.162 16.2402 115.38 19.1157 111.476 23.6448C107.571 19.1924 101.84 16.3714 95.4551 16.3714C89.0412 16.3714 83.2818 19.2212 79.377 23.7119C75.4721 19.2212 69.7159 16.3714 63.2988 16.3714C51.565 16.3714 42.0195 25.8869 42.0195 37.5838C42.0195 49.2807 51.565 58.7962 63.2988 58.7962C75.0325 58.7962 84.5781 49.2807 84.5781 37.5838C84.5781 31.6058 89.4551 26.7441 95.4519 26.7441C101.449 26.7441 106.326 31.6058 106.326 37.5838C106.326 43.5618 101.449 48.4235 95.4519 48.4235C91.807 48.4235 88.5791 46.6259 86.6059 43.8752C85.6241 47.4895 83.8176 50.7648 81.4016 53.4931C85.1524 56.7908 90.0711 58.7962 95.4551 58.7962C107.189 58.7962 116.734 49.2807 116.734 37.5838V37.5806V37.4527C116.734 31.4747 121.611 26.613 127.608 26.613C133.605 26.613 138.482 31.4747 138.482 37.4527V58.7962H148.887V37.4527C148.891 25.7558 139.342 16.2402 127.608 16.2402ZM63.2988 48.4235C57.302 48.4235 52.4249 43.5618 52.4249 37.5838C52.4249 31.6058 57.302 26.7441 63.2988 26.7441C69.2956 26.7441 74.1726 31.6058 74.1726 37.5838C74.1759 43.5618 69.2956 48.4235 63.2988 48.4235Z" fill="white"/>
<path d="M58.8642 75.7068C58.1198 75.7068 57.5422 75.55 57.1315 75.2366C56.7176 74.9231 56.5026 74.4913 56.4834 73.9412H57.5871C57.6 74.1459 57.7059 74.3314 57.9048 74.5009C58.1037 74.6704 58.4278 74.7568 58.877 74.7568C59.2588 74.7568 59.5572 74.6832 59.7786 74.5329C59.9968 74.3826 60.1059 74.1971 60.1059 73.9732C60.1059 73.7685 60.0257 73.6086 59.8652 73.4902C59.7048 73.3719 59.4353 73.2919 59.0535 73.2503L58.5112 73.1991C57.9465 73.1384 57.4973 72.9721 57.1668 72.7002C56.8363 72.4283 56.6695 72.0605 56.6695 71.5999C56.6695 71.2321 56.7625 70.925 56.9454 70.6723C57.1283 70.4196 57.385 70.2277 57.7091 70.0902C58.0331 69.9527 58.4053 69.8855 58.8289 69.8855C59.4834 69.8855 60.0128 70.0294 60.4139 70.3173C60.815 70.6052 61.0235 71.0306 61.0364 71.5871H59.9422C59.9294 71.376 59.8299 71.2001 59.6471 71.0561C59.4642 70.9122 59.1914 70.8419 58.8289 70.8419C58.4888 70.8419 58.2257 70.909 58.046 71.0466C57.8663 71.1841 57.7765 71.3568 57.7765 71.5679C57.7765 71.7598 57.8438 71.9069 57.9818 72.0157C58.1166 72.1244 58.3412 72.1948 58.646 72.23L59.1882 72.2812C59.8075 72.3483 60.3016 72.5211 60.6674 72.7961C61.0332 73.0712 61.216 73.455 61.216 73.9444C61.216 74.2994 61.1166 74.6065 60.9209 74.872C60.7219 75.1374 60.4492 75.3421 60.0963 75.4893C59.7337 75.6332 59.3262 75.7068 58.8642 75.7068Z" fill="white"/>
<path d="M71.0535 75.7291C70.5754 75.7291 70.1615 75.6491 69.8053 75.486C69.4492 75.3229 69.1604 75.1086 68.9358 74.8399C68.7112 74.5712 68.5411 74.2706 68.4288 73.9315C68.3165 73.5957 68.2588 73.2502 68.2588 72.8952V72.7001C68.2588 72.3387 68.3133 71.99 68.4288 71.6542C68.5411 71.3184 68.7112 71.0145 68.9358 70.7458C69.1604 70.4772 69.446 70.2628 69.7893 70.1029C70.1326 69.943 70.5337 69.863 70.9925 69.863C71.5861 69.863 72.0802 69.991 72.4749 70.2501C72.8695 70.5091 73.1679 70.8418 73.3636 71.2544C73.5626 71.667 73.662 72.1084 73.662 72.585V73.0647H68.7722V72.2587H72.8535L72.5262 72.6681C72.5262 72.3003 72.4684 71.9836 72.3529 71.715C72.2374 71.4463 72.0674 71.2384 71.8428 71.0945C71.6182 70.9473 71.3358 70.8738 70.9925 70.8738C70.6395 70.8738 70.3412 70.9569 70.1037 71.1201C69.8663 71.2832 69.6866 71.5071 69.5711 71.7917C69.4556 72.0764 69.3978 72.4122 69.3978 72.8025C69.3978 73.1703 69.4556 73.4965 69.5711 73.7876C69.6866 74.0755 69.8663 74.3057 70.1133 74.4721C70.3572 74.6384 70.6716 74.7216 71.0535 74.7216C71.4353 74.7216 71.7497 74.6384 71.9936 74.4721C72.2374 74.3057 72.3882 74.1106 72.4428 73.8867H73.5561C73.4823 74.261 73.3283 74.5872 73.1005 74.8655C72.8727 75.1438 72.5839 75.3581 72.2374 75.5084C71.8909 75.6587 71.4994 75.7291 71.0535 75.7291Z" fill="white"/>
<path d="M83.1952 77.6961C82.9353 77.6961 82.6722 77.6865 82.4091 77.6641C82.1428 77.6449 81.8925 77.6161 81.6615 77.5841V76.5734C81.9086 76.6086 82.1685 76.6374 82.4444 76.6598C82.7203 76.6822 82.977 76.695 83.2177 76.695C83.6957 76.695 84.0776 76.6342 84.3696 76.5126C84.6583 76.3911 84.8701 76.2024 85.0048 75.9465C85.1396 75.6906 85.2038 75.3612 85.2038 74.9518V73.8899L85.5214 73.1574C85.5022 73.6884 85.3899 74.133 85.1877 74.4944C84.9856 74.8558 84.7193 75.1277 84.3888 75.31C84.0583 75.4923 83.6829 75.5851 83.2594 75.5851C82.8776 75.5851 82.531 75.5147 82.2166 75.3708C81.9022 75.2268 81.6326 75.0285 81.408 74.7695C81.1834 74.5104 81.0102 74.2129 80.885 73.8771C80.7631 73.5412 80.7021 73.183 80.7021 72.8024V72.6073C80.7021 72.2203 80.7663 71.8588 80.8915 71.5262C81.0166 71.1935 81.1963 70.9025 81.4273 70.653C81.6583 70.4035 81.9374 70.2116 82.2615 70.0773C82.5856 69.9429 82.9417 69.8726 83.33 69.8726C83.7792 69.8726 84.177 69.9685 84.5204 70.1636C84.8637 70.3587 85.1364 70.6402 85.3321 71.0144C85.5311 71.3886 85.6369 71.8428 85.6498 72.3802L85.3835 72.4122V70.0453H86.3332V74.8878C86.3332 75.5531 86.2273 76.0936 86.0123 76.503C85.7974 76.9156 85.4605 77.2163 84.9984 77.405C84.5428 77.6001 83.9396 77.6961 83.1952 77.6961ZM83.5546 74.5232C83.8562 74.5232 84.1289 74.456 84.3792 74.3249C84.6294 74.1937 84.8252 74.0018 84.9728 73.7523C85.1203 73.5029 85.1941 73.2054 85.1941 72.86V72.441C85.1941 72.1019 85.1171 71.8141 84.9631 71.5806C84.8091 71.3471 84.6102 71.168 84.3631 71.0464C84.1193 70.9249 83.853 70.8641 83.5642 70.8641C83.2369 70.8641 82.9482 70.9409 82.6947 71.0944C82.4412 71.2479 82.2455 71.4622 82.1075 71.7373C81.9663 72.0124 81.8989 72.3322 81.8989 72.7C81.8989 73.0743 81.9695 73.3973 82.1139 73.6724C82.2583 73.9474 82.454 74.1585 82.7011 74.3057C82.9481 74.4528 83.2337 74.5232 83.5546 74.5232Z" fill="white"/>
<path d="M96.0648 75.7067C95.4167 75.7067 94.9193 75.4989 94.5728 75.0798C94.2263 74.6608 94.0498 74.0435 94.0498 73.2279V70.0454H95.2466V73.391C95.2466 73.7717 95.3525 74.0723 95.5643 74.293C95.776 74.5137 96.0616 74.6257 96.4241 74.6257C96.7931 74.6257 97.0947 74.5073 97.329 74.2738C97.5632 74.0403 97.6819 73.7173 97.6819 73.3111V70.0486H98.8787V75.5436H97.9258V73.1991H98.0477C98.0477 73.7493 97.9739 74.2098 97.8263 74.5809C97.6787 74.9519 97.4637 75.2334 97.1814 75.4221C96.899 75.6108 96.5429 75.7067 96.1129 75.7067H96.0648Z" fill="white"/>
<path d="M106.794 75.5436V70.0486H107.744V72.3419H107.702C107.702 71.5551 107.875 70.9633 108.225 70.5731C108.571 70.1829 109.088 69.9878 109.768 69.9878H109.964V71.0369H109.595C109.075 71.0369 108.681 71.1744 108.405 71.4495C108.129 71.7246 107.991 72.118 107.991 72.6266V75.5436H106.794Z" fill="white"/>
<path d="M119.702 75.729C119.218 75.729 118.791 75.6491 118.422 75.4891C118.053 75.3292 117.745 75.1181 117.491 74.8526C117.238 74.5872 117.049 74.2865 116.92 73.9507C116.792 73.6148 116.725 73.2662 116.725 72.9048V72.7001C116.725 72.3386 116.792 71.99 116.924 71.6509C117.055 71.3119 117.251 71.008 117.508 70.7394C117.764 70.4707 118.075 70.2596 118.444 70.1029C118.813 69.9461 119.231 69.8694 119.702 69.8694C120.174 69.8694 120.591 69.9461 120.954 70.1029C121.316 70.2596 121.631 70.4707 121.89 70.7394C122.15 71.008 122.346 71.3119 122.478 71.6509C122.609 71.99 122.677 72.3418 122.677 72.7001V72.9048C122.677 73.2662 122.612 73.6148 122.481 73.9507C122.352 74.2865 122.16 74.5872 121.91 74.8526C121.659 75.1181 121.348 75.3292 120.979 75.4891C120.61 75.6491 120.187 75.729 119.702 75.729ZM119.702 74.6863C120.078 74.6863 120.398 74.6032 120.665 74.4368C120.931 74.2705 121.133 74.0434 121.274 73.7588C121.416 73.4741 121.483 73.1542 121.483 72.7992C121.483 72.4378 121.412 72.1147 121.268 71.8301C121.124 71.5454 120.921 71.3183 120.655 71.152C120.389 70.9857 120.071 70.9025 119.705 70.9025C119.336 70.9025 119.019 70.9857 118.752 71.152C118.486 71.3183 118.281 71.5454 118.14 71.8301C117.995 72.1147 117.925 72.4378 117.925 72.7992C117.925 73.1542 117.995 73.4709 118.133 73.7588C118.271 74.0434 118.476 74.2705 118.743 74.4368C119.006 74.6032 119.327 74.6863 119.702 74.6863Z" fill="white"/>
<path d="M132.087 75.7068C131.342 75.7068 130.765 75.55 130.354 75.2366C129.94 74.9231 129.725 74.4913 129.706 73.9412H130.81C130.823 74.1459 130.929 74.3314 131.127 74.5009C131.326 74.6704 131.65 74.7568 132.1 74.7568C132.481 74.7568 132.78 74.6832 133.001 74.5329C133.219 74.3826 133.329 74.1971 133.329 73.9732C133.329 73.7685 133.248 73.6086 133.088 73.4902C132.927 73.3719 132.658 73.2919 132.276 73.2503L131.734 73.1991C131.169 73.1384 130.72 72.9721 130.389 72.7002C130.059 72.4283 129.892 72.0605 129.892 71.5999C129.892 71.2321 129.985 70.925 130.168 70.6723C130.351 70.4196 130.608 70.2277 130.932 70.0902C131.256 69.9527 131.628 69.8855 132.052 69.8855C132.706 69.8855 133.235 70.0294 133.637 70.3173C134.038 70.6052 134.246 71.0306 134.259 71.5871H133.165C133.152 71.376 133.053 71.2001 132.87 71.0561C132.687 70.9122 132.414 70.8419 132.052 70.8419C131.711 70.8419 131.448 70.909 131.269 71.0466C131.089 71.1841 130.999 71.3568 130.999 71.5679C130.999 71.7598 131.066 71.9069 131.204 72.0157C131.339 72.1244 131.564 72.1948 131.869 72.23L132.411 72.2812C133.03 72.3483 133.524 72.5211 133.89 72.7961C134.256 73.0712 134.439 73.455 134.439 73.9444C134.439 74.2994 134.339 74.6065 134.144 74.872C133.945 75.1374 133.672 75.3421 133.319 75.4893C132.96 75.6332 132.552 75.7068 132.087 75.7068Z" fill="white"/>
</svg>
