<?xml version="1.0" encoding="utf-8"?>
<!-- Generator: Adobe Illustrator 26.0.3, SVG Export Plug-In . SVG Version: 6.00 Build 0)  -->
<svg version="1.1" xmlns="http://www.w3.org/2000/svg" xmlns:xlink="http://www.w3.org/1999/xlink" x="0px" y="0px"
	 viewBox="0 0 595.28 425.2" style="enable-background:new 0 0 595.28 425.2;" xml:space="preserve">
<style type="text/css">
	.st0{fill:#00F781;}
	.st1{fill:#FFFFFF;}
	.st2{opacity:0.5;fill:url(#SVGID_1_);}
	.st3{opacity:0.5;fill:url(#SVGID_00000152232272005775833530000008323861567945518234_);}
	.st4{fill:#1E1E1E;}
	.st5{opacity:0.5;fill:url(#SVGID_00000142889626556753470510000003811568768275310727_);}
	.st6{opacity:0.5;fill:url(#SVGID_00000060002693401315778340000006872743259661857424_);}
	.st7{opacity:0.5;fill:url(#SVGID_00000111191665594946829370000009632020730760660657_);}
	.st8{opacity:0.5;fill:url(#SVGID_00000065062376082448226560000010665435141552305594_);}
	.st9{opacity:0.5;fill:url(#SVGID_00000026124174718312987590000014528739001005693314_);}
	.st10{opacity:0.5;fill:url(#SVGID_00000127017956564486173900000015088486461555868315_);}
	.st11{fill:#00234C;}
	.st12{opacity:0.5;fill:url(#SVGID_00000080919034983752375060000013132363041803930256_);}
	.st13{opacity:0.5;fill:url(#SVGID_00000133496736091464614270000013357890221649364401_);}
	.st14{opacity:0.5;fill:url(#SVGID_00000067943047735947522310000010747249269231063740_);}
	.st15{opacity:0.5;fill:url(#SVGID_00000130645141715487698790000018350121193914711210_);}
	.st16{opacity:0.5;fill:url(#SVGID_00000052812340903270682960000011760208188582579885_);}
	.st17{opacity:0.5;fill:url(#SVGID_00000177472678520681393450000010425418204389558927_);}
	.st18{opacity:0.5;fill:url(#SVGID_00000056428277625608455080000010239822181839257237_);}
	.st19{opacity:0.5;fill:url(#SVGID_00000140713982907624199590000011037790401763773071_);}
	.st20{opacity:0.5;fill:url(#SVGID_00000181806603610501310570000010491253402135953567_);}
	.st21{opacity:0.5;fill:url(#SVGID_00000179616457840605574070000006455486946087606191_);}
	.st22{opacity:0.5;fill:url(#SVGID_00000093146389460614689040000007477085192202850235_);}
	.st23{opacity:0.5;fill:url(#SVGID_00000033335424140335931160000011726898954732641195_);}
</style>
<g id="BG">
	<g>
		<path class="st0" d="M363.56,212.4c0-18.57,15.11-33.68,33.69-33.68c18.58,0,33.69,15.11,33.69,33.68v66.32h32.23V212.4
			c0-36.35-29.57-65.92-65.92-65.92s-65.92,29.57-65.92,65.92v66.18h32.23V212.4z"/>
		<g>
			<g>
				<path class="st0" d="M297.64,278.72c-36.35,0-65.92-29.57-65.92-65.92c0-36.35,29.57-65.92,65.92-65.92s65.92,29.57,65.92,65.92
					C363.56,249.15,333.99,278.72,297.64,278.72z M297.64,179.12c-18.57,0-33.69,15.11-33.69,33.68s15.11,33.69,33.69,33.69
					c18.58,0,33.69-15.11,33.69-33.69S316.21,179.12,297.64,179.12z"/>
			</g>
		</g>
		<g>
			<linearGradient id="SVGID_1_" gradientUnits="userSpaceOnUse" x1="382.3625" y1="272.7325" x2="339.4765" y2="239.5238">
				<stop  offset="0.0134" style="stop-color:#00F781;stop-opacity:0"/>
				<stop  offset="0.7049" style="stop-color:#004C24"/>
			</linearGradient>
			<path class="st2" d="M331.32,269.43v9.14h32.23v-65.76C363.55,236.85,350.61,257.92,331.32,269.43z"/>
		</g>
		
			<linearGradient id="SVGID_00000020365706621992263490000000753217705186918836_" gradientUnits="userSpaceOnUse" x1="10223.3711" y1="275.0849" x2="10354.833" y2="213.3391" gradientTransform="matrix(-1 0 0 1 10608.6172 0)">
			<stop  offset="0.4201" style="stop-color:#00FF79;stop-opacity:0"/>
			<stop  offset="0.8866" style="stop-color:#004C24"/>
		</linearGradient>
		<path style="opacity:0.5;fill:url(#SVGID_00000020365706621992263490000000753217705186918836_);" d="M263.96,213.21
			c0.22,18.39,15.24,33.28,33.68,33.28s33.46-14.89,33.67-33.28h32.24c-0.22,36.16-29.7,65.51-65.91,65.51s-65.69-29.35-65.91-65.51
			H263.96z"/>
		<g>
			<g>
				<path class="st0" d="M198.03,278.72c-36.35,0-65.92-29.57-65.92-65.92c0-36.35,29.57-65.92,65.92-65.92s65.92,29.57,65.92,65.92
					C263.95,249.15,234.38,278.72,198.03,278.72z M198.03,179.12c-18.58,0-33.69,15.11-33.69,33.68s15.11,33.69,33.69,33.69
					s33.69-15.11,33.69-33.69S216.61,179.12,198.03,179.12z"/>
			</g>
		</g>
	</g>
</g>
<g id="Perla_Souza">
</g>
</svg>
