<?xml version="1.0" standalone="no"?>
<!DOCTYPE svg PUBLIC "-//W3C//DTD SVG 20010904//EN"
 "http://www.w3.org/TR/2001/REC-SVG-20010904/DTD/svg10.dtd">
<svg version="1.0" xmlns="http://www.w3.org/2000/svg"
 width="445.000000pt" height="188.000000pt" viewBox="0 0 445.000000 188.000000"
 preserveAspectRatio="xMidYMid meet">

<g transform="translate(0.000000,188.000000) scale(0.100000,-0.100000)"
fill="#000000" stroke="none">
<path d="M1131 1659 c-230 -40 -428 -221 -497 -455 -28 -93 -23 -247 10 -351
32 -99 106 -213 179 -278 60 -54 209 -129 285 -144 197 -40 405 19 553 157
126 118 184 242 199 430 10 121 37 189 97 249 57 57 122 85 207 91 130 8 246
-60 303 -176 24 -49 28 -69 28 -142 0 -68 -5 -94 -22 -130 -77 -157 -265 -228
-414 -159 -31 15 -74 43 -96 63 l-40 36 -27 -69 c-15 -38 -49 -101 -76 -140
l-49 -72 71 -46 c98 -63 190 -94 304 -100 122 -8 197 8 313 64 76 36 108 59
166 118 115 116 185 287 185 449 0 168 139 307 307 310 136 1 243 -65 299
-186 l29 -63 3 -347 3 -348 150 0 149 0 0 348 c0 392 -6 436 -67 561 -52 105
-168 222 -273 273 -109 54 -194 71 -315 65 -149 -8 -264 -54 -381 -153 l-65
-55 -53 48 c-65 59 -171 117 -257 139 -77 20 -222 22 -299 5 -83 -20 -187 -73
-262 -136 l-68 -55 -66 54 c-121 99 -223 140 -379 150 -44 2 -104 0 -134 -5z
m240 -326 c63 -28 125 -92 157 -162 34 -73 37 -183 5 -252 -94 -208 -366 -260
-521 -99 -87 91 -115 220 -71 335 29 77 104 154 179 184 70 27 182 25 251 -6z"/>
<path d="M2775 655 c-34 -59 -125 -152 -195 -198 l-55 -37 143 0 142 0 0 140
c0 77 -2 140 -4 140 -2 0 -16 -20 -31 -45z"/>
</g>
</svg>
